# xmcd
#
# Track frame offsets:
#	150
#	25358
#	48014
#	75926
#	96744
#	120746
#	139575
#	157803
#	188481
#	209333
#
# Disc length: 3106 seconds
#
# Revision: 1
# Processed by: cddbd v1.5.2PL0 Copyright (c) Steve Scherf et al.
# Submitted via: audiograbber 1.83.01
#
DISCID=770c200a
DTITLE=NO coMMent - Nekünk újra szállni kell
DYEAR=1993
DGENRE=Country
TTITLE0=1974 nyarán
TTITLE1=A legszebb lázadás
TTITLE2=Nekünk nem kell már
TTITLE3=Egy kicsit boldog dal
TTITLE4=Talán
TTITLE5=Visszatérés
TTITLE6=Várok rád éjszaka
TTITLE7=Õszi levél
TTITLE8=Száll a denevér
TTITLE9=Nekünk újra szállni kell
EXTD=
EXTT0=
EXTT1=
EXTT2=
EXTT3=
EXTT4=
EXTT5=
EXTT6=
EXTT7=
EXTT8=
EXTT9=
PLAYORDER=
